<?xml version="1.0" standalone="no"?>
<!DOCTYPE svg PUBLIC "-//W3C//DTD SVG 20010904//EN"
 "http://www.w3.org/TR/2001/REC-SVG-20010904/DTD/svg10.dtd">
<svg version="1.0" xmlns="http://www.w3.org/2000/svg"
 width="512.000000pt" height="512.000000pt" viewBox="0 0 512.000000 512.000000"
 preserveAspectRatio="xMidYMid meet">

<g transform="translate(0.000000,512.000000) scale(0.100000,-0.100000)"
fill="#000000" stroke="none">
<path d="M2095 5086 c-165 -40 -303 -183 -350 -361 -20 -78 -19 -226 1 -296
39 -130 62 -161 297 -392 122 -120 279 -272 349 -338 120 -112 130 -119 168
-119 38 0 48 7 168 119 70 66 227 218 349 338 235 231 258 262 297 392 20 70
21 218 1 296 -48 183 -193 328 -363 364 -139 29 -299 -10 -414 -101 l-38 -30
-37 30 c-119 93 -288 132 -428 98z m236 -218 c30 -14 79 -46 108 -71 63 -54
106 -70 154 -56 18 5 58 30 88 56 83 71 149 98 239 98 64 0 82 -4 123 -28 92
-54 150 -169 149 -295 -1 -77 -19 -134 -61 -195 -32 -46 -555 -552 -571 -552
-16 0 -539 506 -571 552 -44 63 -61 119 -61 203 0 144 74 263 191 307 52 19
148 11 212 -19z"/>
<path d="M1220 3850 c-360 -45 -671 -295 -785 -631 -44 -127 -55 -222 -55
-463 l0 -222 -94 -634 -95 -633 -34 -36 c-53 -55 -95 -128 -124 -216 l-27 -80
-4 -414 c-4 -448 -2 -460 49 -486 41 -22 836 -22 878 -1 66 35 66 137 0 172
-20 10 -64 14 -149 14 l-120 0 2 272 3 272 55 28 c151 77 392 54 525 -49 65
-51 105 -51 170 0 133 103 374 126 525 49 l55 -28 3 -239 c2 -132 0 -255 -3
-272 l-6 -33 -115 0 c-80 0 -123 -4 -143 -14 -66 -35 -66 -137 0 -172 42 -21
3296 -21 3338 1 51 26 53 38 49 486 l-4 414 -27 80 c-58 176 -178 301 -371
390 -70 32 -248 91 -416 137 l-85 24 -3 94 -2 95 42 30 c124 87 269 257 341
400 82 162 81 160 85 543 3 278 0 357 -12 417 -70 339 -326 604 -663 687 -109
26 -292 29 -399 5 -280 -63 -499 -233 -619 -481 -77 -159 -78 -167 -82 -562
-5 -386 -1 -418 57 -555 65 -153 228 -357 356 -445 l55 -38 -3 -95 -3 -95 -85
-24 c-391 -107 -538 -176 -663 -312 l-57 -62 -45 49 c-24 26 -47 62 -50 78 -3
17 -44 286 -92 600 l-86 570 -7 295 c-9 317 -14 352 -70 500 -85 218 -288 426
-508 520 -141 60 -337 89 -482 70z m287 -215 c277 -64 504 -304 559 -591 12
-67 21 -394 10 -394 -16 0 -190 36 -271 56 -275 68 -482 153 -671 275 -117 76
-147 78 -201 17 -81 -91 -172 -175 -245 -225 -116 -81 -108 -86 -108 65 0 145
17 251 53 342 105 260 335 436 617 473 54 8 188 -2 257 -18z m2461 -1 c31 -8
95 -33 142 -56 110 -53 236 -176 293 -285 44 -84 77 -204 77 -278 l0 -52 -96
-37 c-142 -54 -253 -79 -364 -80 -116 0 -181 18 -370 105 -187 85 -261 103
-422 97 -94 -4 -128 -2 -128 7 0 37 45 176 77 238 44 85 168 214 255 265 157
92 359 121 536 76z m-561 -800 c28 -8 115 -44 193 -80 225 -104 360 -129 548
-100 57 9 155 33 218 54 l114 38 0 -146 c0 -91 -5 -164 -14 -197 -72 -269
-348 -532 -613 -583 -262 -51 -652 257 -739 583 -9 35 -14 112 -14 239 0 214
-9 196 105 207 74 8 134 4 202 -15z m-2279 -84 c167 -95 377 -174 617 -234 77
-19 157 -38 178 -41 35 -7 37 -9 37 -46 0 -148 -90 -322 -242 -464 -176 -166
-356 -222 -522 -161 -95 34 -170 81 -254 161 -165 155 -242 314 -242 500 l0
74 91 62 c50 34 123 93 162 130 40 38 75 68 80 69 4 0 46 -22 95 -50z m-473
-761 c62 -87 132 -163 196 -215 l60 -48 -3 -80 -3 -81 -145 -40 c-80 -22 -187
-55 -239 -73 -51 -18 -96 -31 -98 -28 -3 3 21 181 53 396 l58 391 41 -84 c22
-46 58 -108 80 -138z m1531 -177 c31 -210 54 -385 51 -388 -2 -3 -47 10 -98
28 -52 18 -159 51 -239 73 l-145 40 -3 81 -3 80 66 54 c76 63 151 148 212 243
40 61 54 88 85 167 6 14 12 21 14 15 2 -5 29 -182 60 -393z m1449 -178 c33
-11 86 -17 155 -17 69 0 122 6 155 17 28 9 53 16 58 16 4 0 7 -26 6 -57 l0
-58 -110 -93 -109 -93 -110 97 -110 97 0 53 c0 30 3 54 8 54 4 0 30 -7 57 -16z
m-2305 -54 c52 0 111 7 152 18 l66 19 4 -83 c5 -120 2 -118 281 -198 331 -95
452 -152 531 -249 87 -108 96 -157 96 -549 l0 -318 -136 0 -136 0 3 298 c3
332 4 329 -67 392 -163 143 -496 169 -726 57 l-68 -33 -67 33 c-100 48 -197
68 -333 67 -168 0 -295 -40 -390 -122 -75 -64 -75 -61 -78 -395 l-4 -297 -129
0 -129 0 0 318 c0 245 4 331 15 380 27 116 75 183 175 250 86 58 184 95 438
168 277 79 275 78 280 198 l4 83 66 -19 c41 -11 100 -18 152 -18z m2215 -282
l94 -82 -57 -51 c-31 -29 -73 -66 -93 -83 l-36 -32 -67 138 c-37 75 -68 141
-69 147 -2 8 92 41 126 44 5 1 51 -36 102 -81z m653 66 c32 -9 60 -19 64 -23
3 -3 -26 -70 -65 -148 l-72 -142 -86 77 c-47 42 -88 80 -90 84 -4 6 178 168
189 168 2 0 29 -7 60 -16z m-1238 -414 c-38 -167 -70 -312 -70 -321 0 -48 28
-72 269 -225 135 -87 255 -163 266 -171 16 -11 -41 -13 -373 -13 l-392 0 0
314 c0 172 5 337 10 366 27 141 109 239 260 313 52 26 95 45 97 43 2 -2 -28
-140 -67 -306z m1750 233 c58 -35 133 -110 159 -161 44 -87 51 -147 51 -484
l0 -318 -392 0 c-332 0 -389 2 -373 13 11 8 131 84 266 170 242 154 269 177
269 226 0 9 -31 153 -70 320 -38 166 -70 304 -70 306 0 7 109 -43 160 -72z
m-1336 -432 c92 -189 165 -345 164 -347 -3 -2 -154 92 -354 221 l-82 53 44
188 c24 104 46 200 49 213 3 13 8 22 10 20 2 -3 78 -159 169 -348z m1055 134
l48 -207 -81 -53 c-183 -119 -351 -224 -353 -221 -2 2 72 159 164 349 91 191
168 345 170 343 3 -2 26 -97 52 -211z m-515 86 c64 -57 116 -107 116 -112 0
-14 -234 -499 -240 -499 -9 0 -242 490 -238 502 5 14 231 218 240 215 3 -1 58
-49 122 -106z"/>
<path d="M1281 206 c-87 -48 -50 -186 49 -186 51 0 100 49 100 99 0 75 -83
124 -149 87z"/>
</g>
</svg>
