<?xml version="1.0" standalone="no"?>
<!DOCTYPE svg PUBLIC "-//W3C//DTD SVG 20010904//EN"
 "http://www.w3.org/TR/2001/REC-SVG-20010904/DTD/svg10.dtd">
<svg version="1.0" xmlns="http://www.w3.org/2000/svg"
 width="512.000000pt" height="512.000000pt" viewBox="0 0 512.000000 512.000000"
 preserveAspectRatio="xMidYMid meet">

<g transform="translate(0.000000,512.000000) scale(0.100000,-0.100000)"
fill="#000000" stroke="none">
<path d="M2214 4969 c-177 -68 -258 -270 -179 -446 18 -39 62 -92 167 -199 79
-80 178 -178 221 -217 70 -63 83 -71 127 -75 37 -3 56 0 82 16 44 27 408 397
436 443 74 122 60 284 -35 389 -64 71 -129 102 -225 108 -86 5 -147 -11 -210
-54 l-38 -26 -47 30 c-27 17 -66 35 -88 41 -61 17 -154 12 -211 -10z m196
-144 c17 -9 52 -36 80 -60 28 -25 59 -45 70 -45 11 0 42 20 70 45 74 66 103
78 172 73 115 -8 187 -109 158 -220 -10 -36 -41 -73 -206 -238 l-194 -195
-186 185 c-178 177 -223 235 -224 285 0 67 44 140 102 168 42 21 120 22 158 2z"/>
<path d="M1245 4290 c-17 -5 -43 -23 -59 -38 -23 -25 -398 -801 -596 -1232
-70 -155 -94 -257 -94 -410 0 -150 24 -260 83 -386 65 -139 152 -247 272 -340
l57 -43 -162 -444 c-122 -335 -169 -453 -194 -485 -38 -47 -138 -102 -187
-102 -102 0 -311 -87 -346 -145 -30 -48 -19 -118 24 -153 7 -6 242 -95 521
-197 341 -124 521 -185 548 -185 32 0 47 7 74 34 42 42 44 79 10 170 -31 80
-65 135 -132 210 -67 74 -97 149 -92 226 3 39 50 181 163 491 l159 437 110 0
c63 0 145 7 191 17 291 60 552 279 659 553 13 34 86 298 162 587 76 289 140
525 144 525 4 0 68 -236 144 -525 76 -289 149 -553 162 -587 65 -165 230 -368
301 -368 31 0 73 42 73 75 0 18 -24 50 -80 112 -102 109 -156 214 -205 403
-20 74 -38 142 -40 150 -4 13 12 15 98 16 286 2 497 177 577 479 28 105 71
184 132 241 94 87 246 137 364 118 l59 -9 142 -300 c146 -310 177 -396 189
-525 16 -192 -62 -416 -196 -563 -164 -180 -417 -277 -640 -247 -176 24 -176
24 -199 1 -26 -26 -28 -81 -3 -104 30 -28 148 -49 273 -50 l116 0 158 -436
c113 -310 160 -452 163 -491 5 -77 -25 -152 -92 -226 -67 -75 -101 -130 -132
-210 -34 -91 -32 -128 10 -170 27 -27 42 -34 74 -34 27 0 205 60 547 185 279
102 514 190 522 197 42 34 54 102 26 148 -35 60 -190 129 -335 149 -84 12
-160 52 -203 108 -17 23 -51 95 -74 160 -46 125 -60 148 -102 158 -37 9 -83
-31 -81 -71 1 -32 66 -214 101 -282 44 -86 134 -163 231 -197 25 -9 78 -21
119 -26 78 -11 171 -42 155 -52 -5 -3 -192 -72 -414 -153 -223 -80 -411 -149
-418 -152 -25 -9 24 70 87 143 68 77 105 146 122 226 23 109 12 155 -155 613
-86 236 -156 434 -156 440 0 7 22 19 49 28 l50 16 42 -117 c64 -179 75 -200
104 -211 34 -13 73 5 94 41 14 25 11 37 -46 193 l-61 167 57 43 c230 178 354
433 355 726 0 153 -24 255 -94 410 -195 426 -574 1208 -597 1232 -31 33 -90
52 -130 42 -15 -4 -298 -106 -628 -227 -330 -121 -607 -219 -615 -219 -8 0
-100 32 -205 71 -104 39 -199 70 -210 70 -49 0 -81 -56 -60 -105 12 -28 27
-36 204 -100 105 -38 191 -73 191 -79 0 -5 -30 -125 -66 -266 l-67 -257 -76
53 c-100 67 -181 95 -298 102 -106 6 -189 -7 -271 -43 -64 -28 -62 -28 -62
-10 0 7 -22 47 -48 87 -106 162 -265 258 -455 275 -69 6 -77 9 -72 25 4 10 40
90 82 176 41 87 90 190 108 230 l33 71 244 -89 c133 -49 257 -89 275 -89 34 0
73 37 73 71 0 45 -41 67 -292 158 -265 97 -297 105 -343 91z m2704 -390 c61
-130 111 -239 111 -243 0 -4 -19 -7 -42 -7 -73 0 -180 -28 -258 -67 -98 -48
-213 -161 -256 -250 -21 -45 -33 -60 -44 -56 -144 57 -143 56 -265 57 -168 1
-249 -27 -401 -139 -20 -15 -21 -12 -88 242 -36 142 -66 263 -66 268 0 12
1182 444 1191 436 4 -3 57 -112 118 -241z m-2756 -415 c144 -38 257 -134 312
-268 l16 -38 -68 -31 c-129 -61 -298 -48 -421 32 -60 38 -132 113 -132 137 0
7 18 49 40 93 36 71 43 79 72 83 72 9 126 6 181 -8z m917 -331 c70 -34 124
-73 164 -121 l26 -31 -85 -323 c-107 -411 -134 -470 -269 -604 -103 -102 -170
-145 -288 -186 -398 -137 -824 65 -968 458 -77 213 -62 404 51 642 28 58 58
121 65 139 l15 33 59 -54 c115 -104 253 -152 415 -144 137 6 212 32 333 115
132 91 199 114 322 109 82 -2 104 -7 160 -33z m1225 11 c28 -9 61 -25 74 -34
l24 -18 -26 -57 c-32 -69 -120 -163 -185 -199 -96 -52 -241 -72 -321 -44 -33
11 -35 16 -58 101 l-24 90 52 52 c56 57 126 99 198 120 60 17 201 12 266 -11z
m-2195 -1441 c0 -7 -70 -204 -156 -439 -122 -337 -157 -441 -161 -494 -11
-127 28 -232 128 -346 63 -73 112 -152 87 -143 -7 3 -195 72 -418 153 -223 81
-409 150 -414 153 -16 9 78 40 155 51 169 23 288 100 352 228 19 36 220 577
319 854 l9 27 50 -16 c27 -9 49 -21 49 -28z"/>
<path d="M165 2965 c-26 -26 -31 -54 -15 -85 15 -29 123 -90 159 -90 56 0 89
58 61 110 -13 24 -130 90 -159 90 -12 0 -33 -11 -46 -25z"/>
<path d="M4823 2954 c-35 -19 -67 -44 -73 -54 -28 -52 5 -110 61 -110 36 0
144 61 159 90 16 31 11 59 -15 85 -33 33 -58 31 -132 -11z"/>
<path d="M103 2644 c-20 -20 -24 -31 -19 -57 10 -51 38 -67 115 -67 88 0 109
7 126 41 21 39 19 56 -10 84 -22 22 -32 25 -105 25 -74 0 -83 -2 -107 -26z"/>
<path d="M4803 2644 c-20 -20 -24 -31 -19 -57 11 -52 28 -62 119 -65 94 -4
122 9 133 65 5 26 1 37 -19 57 -24 24 -33 26 -107 26 -74 0 -83 -2 -107 -26z"/>
<path d="M225 2368 c-79 -49 -98 -82 -70 -124 9 -14 28 -30 42 -37 21 -10 33
-7 80 18 80 43 103 68 103 109 0 25 -7 40 -26 55 -37 29 -50 27 -129 -21z"/>
<path d="M4766 2389 c-19 -15 -26 -30 -26 -55 0 -41 23 -66 103 -108 49 -27
57 -28 85 -17 41 17 59 60 40 97 -14 28 -129 104 -158 104 -10 0 -29 -9 -44
-21z"/>
</g>
</svg>
